Coordinates
version=1
nRows=29
nColumns=18
inDegrees=yes

Units are S.I. units (second, meters, Newtons, ...)
If the header above contains a line with 'inDegrees', this indicates whether rotational values are in degrees (yes) or radians (no).

endheader
time	ground_thorax_rot_x	ground_thorax_rot_y	ground_thorax_rot_z	ground_thorax_tx	ground_thorax_ty	ground_thorax_tz	clav_prot	clav_elev	scapula_abduction	scapula_elevation	scapula_upward_rot	scapula_winging	plane_elv	shoulder_elv	axial_rot	elbow_flexion	pro_sup
      6.26000000	      2.82864709	     -3.03443457	     -8.11099400	     -0.00529753	      0.00471003	      0.00065810	    -23.90649487	     -5.37078429	    -13.75606395	     -5.27462716	     14.31759483	      5.46807870	     17.13632554	     23.18816607	     19.94020306	      0.00000000	     34.32000000
      6.27000000	      2.79656461	     -3.09053671	     -8.06691166	     -0.00528885	      0.00473205	      0.00077560	    -23.80191433	     -5.63495904	    -13.71426412	     -5.38356115	     13.97687358	      5.64831256	     14.98845329	     22.91989351	     22.93371981	      0.00000000	     34.32000000
      6.28000000	      2.88969864	     -3.32361535	     -8.28749429	     -0.00508441	      0.00433147	      0.00111434	    -23.83816639	     -5.53209301	    -13.87778911	     -5.27330149	     13.84618324	      5.64170124	     14.84210756	     22.85360574	     22.92991975	      0.00000000	     34.32000000
      6.29000000	      2.92272568	     -3.15211183	     -8.10107387	     -0.00533601	      0.00458148	      0.00085741	    -23.97564336	     -5.35445269	    -14.11275742	     -5.16469659	     13.92068540	      5.55839428	     13.24839084	     22.46746048	     23.09958151	      0.00000000	     34.32000000
      6.30000000	      2.97475999	     -3.32537306	     -8.28303086	     -0.00518012	      0.00438657	      0.00110831	    -23.99357943	     -5.27765435	    -14.22655239	     -5.07871238	     13.81117963	      5.55723982	     13.14328831	     22.39252834	     23.10166602	      0.00000000	     34.32000000
      6.31000000	      2.79797869	     -3.29693121	     -8.09369776	     -0.00525542	      0.00468836	      0.00087848	    -23.75658067	     -5.64833264	    -13.79691562	     -5.31929275	     13.69779122	      5.72017319	      9.83658254	     21.96550428	     26.64449773	      0.00000000	     34.32000000
      6.32000000	      3.03071840	     -3.08742467	     -8.11294890	     -0.00528500	      0.00455718	      0.00106651	    -23.90663090	     -5.66278615	    -14.15988889	     -5.29177372	     13.51191008	      5.77167991	      8.77567695	     22.09414704	     27.03161743	      0.00000000	     34.32000000
      6.33000000	      3.11582100	     -3.23953188	     -8.28358997	     -0.00512660	      0.00420583	      0.00129301	    -23.91929044	     -5.60434376	    -14.26609145	     -5.21632519	     13.39080779	      5.77922335	      8.66104161	     22.01583920	     27.04062101	      0.00000000	     34.32000000
      6.34000000	      2.93409225	     -3.08565388	     -8.04952417	     -0.00532500	      0.00468874	      0.00100414	    -23.98530402	     -5.64040736	    -14.19805934	     -5.32463512	     13.68689613	      5.72144671	      5.99544709	     20.74604505	     32.43406900	      0.00000000	     34.32000000
      6.35000000	      2.83299414	     -3.15352112	     -8.09416466	     -0.00524255	      0.00462581	      0.00095430	    -24.02410107	     -5.45094956	    -14.30731480	     -5.18272459	     13.69136831	      5.64995844	      5.65393176	     20.27859309	     32.42834267	      0.00000000	     34.32000000
      6.36000000	      2.89496361	     -3.29872777	     -8.27674695	     -0.00501602	      0.00458829	      0.00111968	    -24.03347297	     -5.36446096	    -14.41237409	     -5.08681848	     13.57487897	      5.64649449	      5.55359784	     20.20513030	     32.42232928	      0.00000000	     34.32000000
      6.37000000	      2.84961442	     -2.89940122	     -8.08651329	     -0.00523021	      0.00474168	      0.00077637	    -24.14744837	     -5.43054514	    -14.59481854	     -5.14345162	     13.57007802	      5.67168519	      2.67773414	     19.86174105	     34.20810155	      0.00000000	     34.32000000
      6.38000000	      3.00409079	     -2.68881276	     -8.12040383	     -0.00520830	      0.00465399	      0.00090730	    -24.23771670	     -5.58745730	    -14.88795248	     -5.19146653	     13.26807959	      5.80269498	      1.21136375	     20.13153066	     35.29989809	      0.00000000	     34.32000000
      6.39000000	      3.32599996	     -2.71250173	     -8.30506829	     -0.00503147	      0.00431545	      0.00128552	    -24.25012214	     -5.55272830	    -15.00957457	     -5.12432793	     13.10946288	      5.82817959	      0.85994195	     20.46748308	     35.43321992	      0.00000000	     34.32000000
      6.40000000	      3.41131909	     -2.82039317	     -8.42525614	     -0.00487068	      0.00397552	      0.00147262	    -24.26868340	     -5.50645669	    -15.12388787	     -5.05776476	     12.98611405	      5.84094909	      0.66102431	     20.52384482	     35.47341950	      0.00000000	     34.32000000
      6.41000000	      3.21997745	     -2.52577604	     -8.09130198	     -0.00520942	      0.00455651	      0.00116007	    -24.27949468	     -5.69104370	    -15.16389862	     -5.17079845	     12.87240638	      5.93665028	     -2.25593353	     19.98531760	     40.62802901	      0.00000000	     34.32000000
      6.42000000	      3.25583347	     -2.60826156	     -8.20014258	     -0.00508345	      0.00452067	      0.00128919	    -24.28102453	     -5.63962653	    -15.22132978	     -5.11215390	     12.79862952	      5.93489684	     -2.31095448	     19.96058469	     40.62303967	      0.00000000	     34.32000000
      6.43000000	      3.28250279	     -2.68023321	     -8.31139764	     -0.00488892	      0.00446892	      0.00140341	    -24.28130419	     -5.57921284	    -15.27890886	     -5.04617013	     12.72452472	      5.93106929	     -2.37595901	     19.93046980	     40.61787930	      0.00000000	     34.32000000
      6.44000000	      3.17914401	     -2.61339360	     -8.32392795	     -0.00486675	      0.00424381	      0.00119506	    -24.28832242	     -5.38579177	    -15.38563157	     -4.87584824	     12.64102830	      5.88089207	     -2.72394683	     19.65715788	     40.61472867	      0.00000000	     34.32000000
      6.45000000	      3.17633520	     -2.07074589	     -8.16286817	     -0.00505507	      0.00457235	      0.00068313	    -24.71539094	     -5.29403708	    -15.93426974	     -4.92564706	     12.99730510	      5.75466008	     -4.86940870	     18.93667948	     41.51301774	      0.00000000	     34.32000000
      6.46000000	      3.08242146	     -1.85118146	     -8.05395748	     -0.00506807	      0.00476592	      0.00052053	    -24.90689974	     -5.25754820	    -16.18002440	     -4.95073867	     13.15412378	      5.69855393	     -7.14624391	     17.90627850	     47.25679172	      0.00000000	     34.32000000
      6.47000000	      3.10450272	     -1.72513374	     -8.03311794	     -0.00501516	      0.00482708	      0.00043466	    -25.01944812	     -5.17749812	    -16.39648960	     -4.89450934	     13.14666132	      5.66813449	     -8.49146637	     17.31232965	     50.00479479	      0.00000000	     34.32000000
      6.48000000	      3.12517461	     -1.81837266	     -8.18274326	     -0.00486436	      0.00463542	      0.00036259	    -24.98647380	     -5.10467554	    -16.48327499	     -4.77997984	     12.93051743	      5.69592197	     -8.61826625	     17.11071438	     50.02822101	      0.00000000	     34.32000000
      6.49000000	      3.24336339	     -1.96725876	     -8.34874811	     -0.00469832	      0.00450661	      0.00050925	    -24.98219725	     -5.04706608	    -16.58658261	     -4.69167307	     12.76362858	      5.71655914	     -8.71597826	     17.04314319	     50.02329359	      0.00000000	     34.32000000
      6.50000000	      3.11735477	     -1.77765928	     -8.09776098	     -0.00489603	      0.00476468	      0.00037524	    -24.98211245	     -5.13241863	    -16.53281847	     -4.77201771	     12.81980507	      5.73310983	    -12.48090729	     16.49703486	     55.55160480	      0.00000000	     34.32000000
      6.51000000	      3.18688433	     -1.90304253	     -8.26188512	     -0.00468835	      0.00450299	      0.00071119	    -24.99539356	     -5.05603678	    -16.62955497	     -4.68908150	     12.72428153	      5.72899114	    -12.57625866	     16.52944903	     55.53850905	      0.00000000	     34.32000000
      6.52000000	      3.32961495	     -1.50252071	     -8.03042055	     -0.00498889	      0.00464964	      0.00054725	    -25.16456441	     -4.77707022	    -16.91166759	     -4.52083305	     12.85831784	      5.59238438	    -14.28443465	     16.63176718	     55.13654240	      0.00000000	     34.32000000
      6.53000000	      3.28167670	     -1.40671645	     -8.10104486	     -0.00494931	      0.00469290	      0.00055908	    -25.26073051	     -4.83120346	    -16.96163730	     -4.61424797	     13.03230676	      5.56451515	    -15.90175303	     16.57882767	     54.97810216	      0.00000000	     34.32000000
      6.54000000	      3.31778575	     -1.54462630	     -8.25085847	     -0.00480755	      0.00444327	      0.00089962	    -25.27870682	     -4.75674888	    -17.05307424	     -4.53928822	     12.95997477	      5.55569274	    -15.97797601	     16.63097917	     54.97348949	      0.00000000	     34.32000000
